<?xml version="1.0" standalone="no"?>
<!DOCTYPE svg PUBLIC "-//W3C//DTD SVG 1.1//EN" "http://www.w3.org/Graphics/SVG/1.1/DTD/svg11.dtd" >
<svg xmlns="http://www.w3.org/2000/svg" xmlns:xlink="http://www.w3.org/1999/xlink" version="1.1">
<metadata>
Created by FontForge 20170910 at Tue Dec  1 11:04:12 1998
 By Jimmy Wärting
io grafix 1998
</metadata>
<defs>
<font id="Cafeta" horiz-adv-x="1024" >
  <font-face 
    font-family="cafeta"
    font-weight="400"
    font-stretch="condensed"
    units-per-em="2048"
    panose-1="2 11 6 8 2 2 2 5 2 4"
    ascent="1638"
    descent="-410"
    x-height="1067"
    cap-height="1446"
    bbox="-276 -483 2048 1849"
    underline-thickness="133"
    underline-position="-234"
    unicode-range="U+0020-F002"
  />
<missing-glyph 
d="M128 0v1849h768v-1849h-768zM256 128h512v1593h-512v-1593z" />
    <glyph glyph-name=".notdef" 
d="M128 0v1849h768v-1849h-768zM256 128h512v1593h-512v-1593z" />
    <glyph glyph-name=".null" horiz-adv-x="0" 
 />
    <glyph glyph-name="nonmarkingreturn" horiz-adv-x="416" 
 />
    <glyph glyph-name="space" unicode=" " horiz-adv-x="416" 
 />
    <glyph glyph-name="exclam" unicode="!" horiz-adv-x="440" 
d="M152 418l-48 1028h230l-47 -1028h-135zM113 0v227h213v-227h-213z" />
    <glyph glyph-name="quotedbl" unicode="&#x22;" horiz-adv-x="643" 
d="M395 1436h164v-557h-164v557zM86 1436h164v-557h-164v557z" />
    <glyph glyph-name="numbersign" unicode="#" horiz-adv-x="1575" 
d="M709 852l-91 -254h256l91 254h-256zM735 1460h191l-154 -436h250l156 436h190l-154 -436h291l-59 -172h-293l-90 -252h309l-61 -172h-307l-156 -434h-191l156 434h-252l-158 -434h-190l156 434h-299l61 172h297l90 252h-315l61 172h316z" />
    <glyph glyph-name="dollar" unicode="$" horiz-adv-x="831" 
d="M350 932v338q-76 -48 -76 -160q0 -96 76 -178zM471 172q94 31 94 197q0 118 -94 202v-399zM350 -31q-212 39 -282 215l149 135q40 -102 133 -145v479q-270 198 -270 441q0 134 69 239q75 113 201 140v176h121v-174q149 -21 248 -164l-131 -133q-45 78 -117 99v-439
q147 -108 213 -207q82 -122 82 -281q0 -146 -75 -251q-81 -115 -220 -132v-172h-121v174z" />
    <glyph glyph-name="percent" unicode="%" horiz-adv-x="1061" 
d="M881 195v329q0 78 -66 78q-63 0 -63 -76v-331q0 -91 63 -91q66 0 66 91zM1036 231q0 -262 -221 -262t-221 267v260q0 111 58.5 176t168.5 65q105 0 163 -71q52 -66 52 -174v-261zM109 0l653 1446h176l-653 -1446h-176zM307 932v332q0 75 -63 75q-66 0 -66 -75v-332
q0 -88 66 -88q63 0 63 88zM465 969q0 -262 -221 -262t-221 266v260q0 111 57.5 176.5t167.5 65.5q106 0 164 -72q53 -66 53 -174v-260z" />
    <glyph glyph-name="ampersand" unicode="&#x26;" horiz-adv-x="903" 
d="M365 889q112 166 112 291q0 143 -84 143q-48 0 -73 -69q-17 -50 -17 -109q0 -123 62 -256zM315 522q-61 -102 -61 -188q0 -59 30 -97q33 -42 91 -42q67 0 104 57q-71 84 -164 270zM610 88q-101 -121 -252 -121q-144 0 -228 103q-79 96 -79 243q0 190 172 406
q-100 231 -100 414q0 139 69 235q77 107 211 107q126 0 193 -92q61 -82 61 -212q0 -117 -66 -245q-39 -75 -140 -215q60 -131 149 -273q48 90 78 246l186 -49q-21 -180 -131 -367q45 -63 111 -84v-217q-134 10 -234 121z" />
    <glyph glyph-name="quotesingle" unicode="'" horiz-adv-x="334" 
d="M86 1436h164v-557h-164v557z" />
    <glyph glyph-name="parenleft" unicode="(" horiz-adv-x="563" 
d="M537 -131l-142 -86q-293 431 -293 885q0 427 236 807h192q-223 -366 -223 -797q0 -436 230 -809z" />
    <glyph glyph-name="parenright" unicode=")" horiz-adv-x="563" 
d="M27 -131q231 379 231 809q0 427 -225 797h194q234 -375 234 -807q0 -454 -293 -885z" />
    <glyph glyph-name="asterisk" unicode="*" horiz-adv-x="788" 
d="M393 1055l-127 -248l-129 96l197 197l-273 45l50 151l245 -127l-37 277h150l-37 -277l246 127l49 -151l-272 -45l196 -197l-129 -96z" />
    <glyph glyph-name="plus" unicode="+" horiz-adv-x="1706" 
d="M768 1221h170v-527h514v-166h-514v-528h-170v528h-514v166h514v527z" />
    <glyph glyph-name="comma" unicode="," horiz-adv-x="440" 
d="M115 0v227h213v-227l-115 -256h-98l73 256h-73z" />
    <glyph glyph-name="hyphen" unicode="-" horiz-adv-x="635" 
d="M80 457v151h475v-151h-475z" />
    <glyph glyph-name="hyphen" unicode="&#x2010;" horiz-adv-x="635" 
d="M80 457v151h475v-151h-475z" />
    <glyph glyph-name="period" unicode="." horiz-adv-x="440" 
d="M115 0v227h213v-227h-213z" />
    <glyph glyph-name="slash" unicode="/" horiz-adv-x="500" 
d="M-154 -190l586 1665h162l-586 -1665h-162z" />
    <glyph glyph-name="zero" unicode="0" horiz-adv-x="831" 
d="M301 309q0 -135 119 -135q112 0 112 135v846q0 52 -32 83.5t-84 31.5q-50 0 -82.5 -31.5t-32.5 -81.5v-848zM84 1112q0 166 85 263q89 102 253 102q159 0 247 -108q81 -100 81 -263v-741q0 -177 -77 -280q-86 -116 -257 -116q-332 0 -332 402v741z" />
    <glyph glyph-name="one" unicode="1" horiz-adv-x="530" 
d="M-10 1122v146q169 59 248 178h149v-1446h-221v1122h-176z" />
    <glyph glyph-name="two" unicode="2" horiz-adv-x="809" 
d="M61 0v209q455 627 455 897q0 174 -100 174q-63 0 -91 -51q-22 -42 -26 -149l-2 -54h-217v27q0 184 75 294q88 128 263 128q147 0 229 -102q76 -94 76 -245q0 -200 -150 -484q-73 -136 -272 -435h404v-209h-644z" />
    <glyph glyph-name="three" unicode="3" horiz-adv-x="762" 
d="M57 418h211v-60q0 -182 105 -182q119 0 119 207q0 131 -28 187q-41 79 -157 79h-28v203q6 0 17 1t17 1q94 0 131 68q27 50 27 155q0 189 -94 189q-105 0 -105 -158q0 -33 2 -55h-211v12q0 173 69 280q82 128 245 128q291 0 291 -410q0 -238 -125 -311q93 -46 127 -144
q24 -70 24 -198q0 -439 -309 -439q-170 0 -255 125q-73 107 -73 285v37z" />
    <glyph glyph-name="four" unicode="4" horiz-adv-x="817" 
d="M422 543v528l-180 -528h180zM51 352v191l371 903h209v-903h135v-191h-135v-352h-209v352h-371z" />
    <glyph glyph-name="five" unicode="5" horiz-adv-x="786" 
d="M84 403h199v-73q0 -164 116 -164q103 0 103 143v369q0 119 -94 119q-88 0 -123 -117l-183 8l25 758h545l8 -209h-377l-18 -340q96 94 200 94q220 0 220 -305v-367q0 -157 -81 -250q-85 -100 -239 -100q-301 0 -301 391v43z" />
    <glyph glyph-name="six" unicode="6" horiz-adv-x="831" 
d="M309 608v-299q0 -58 30 -95q33 -40 89 -40q111 0 111 135v281q0 112 -97 112q-77 0 -133 -94zM758 365q0 -177 -78 -280q-87 -116 -258 -116q-332 0 -332 402v741q0 166 86 263q90 102 254 102q158 0 246 -109q82 -100 82 -262v-45h-219v94q0 51 -32 83t-83 32
q-50 0 -82.5 -31.5t-32.5 -81.5v-356q88 92 205 92q123 0 186 -81q58 -73 58 -200v-247z" />
    <glyph glyph-name="seven" unicode="7" horiz-adv-x="649" 
d="M12 1237v209h606v-158l-270 -1288h-215l266 1237h-387z" />
    <glyph glyph-name="eight" unicode="8" horiz-adv-x="762" 
d="M385 879q96 0 96 208q0 97 -10 134q-21 79 -90 79q-68 0 -89 -77q-11 -39 -11 -133q0 -96 11 -135q22 -76 93 -76zM387 174q107 0 107 234q0 104 -11 149q-23 92 -96 92q-78 0 -104 -75q-15 -43 -15 -142q0 -114 12 -161q26 -97 107 -97zM203 770q-121 86 -121 328
q0 377 301 377q297 0 297 -375q0 -242 -119 -332q141 -74 141 -379q0 -420 -319 -420q-324 0 -324 439q0 269 144 362z" />
    <glyph glyph-name="nine" unicode="9" horiz-adv-x="831" 
d="M520 838v299q0 133 -119 133q-110 0 -110 -148v-202q0 -170 110 -170q79 0 119 88zM72 340v45h219v-96q0 -115 115 -115q50 0 82 32.5t32 82.5v356q-78 -82 -174 -82q-283 0 -283 447q0 467 345 467q331 0 331 -402v-741q0 -167 -86 -264q-89 -101 -254 -101
q-158 0 -246 109q-81 100 -81 262z" />
    <glyph glyph-name="colon" unicode=":" horiz-adv-x="440" 
d="M115 0v227h213v-227h-213zM115 408v227h213v-227h-213z" />
    <glyph glyph-name="semicolon" unicode=";" horiz-adv-x="440" 
d="M115 408v227h213v-227h-213zM115 0v227h213v-227l-115 -256h-98l73 256h-73z" />
    <glyph glyph-name="less" unicode="&#x3c;" horiz-adv-x="1706" 
d="M1442 1176v-185l-934 -381l934 -381v-182l-1178 483v160z" />
    <glyph glyph-name="equal" unicode="=" horiz-adv-x="1706" 
d="M254 487h1198v-165h-1198v165zM254 901h1198v-168h-1198v168z" />
    <glyph glyph-name="greater" unicode="&#x3e;" horiz-adv-x="1706" 
d="M264 1176l1178 -486v-160l-1178 -483v182l934 381l-934 381v185z" />
    <glyph glyph-name="question" unicode="?" horiz-adv-x="631" 
d="M203 426q0 10 -1 29.5t-1 29.5q0 207 63 375q5 14 80 166q57 115 57 158q0 96 -84 96q-72 0 -137 -154l-174 72q80 277 307 277q132 0 210.5 -74t78.5 -205q0 -102 -71 -234q-108 -202 -115 -219q-41 -105 -41 -243v-37q1 -25 1 -37h-173zM182 0v238h215v-238h-215z" />
    <glyph glyph-name="at" unicode="@" horiz-adv-x="2048" 
d="M1174 283q-106 -168 -304 -168q-313 0 -313 336q0 217 125 380q135 177 346 177q172 0 248 -142l55 107h154l-148 -586q-1 -4 -2 -12q-6 -30 -6 -37q0 -84 96 -84q106 0 213 115q148 159 148 393q0 272 -207 428q-188 141 -469 141q-274 0 -471 -125q-377 -239 -377 -686
q0 -327 224 -513q210 -173 544 -173q340 0 615 191l67 -99q-299 -227 -674 -227q-384 0 -632 190q-308 236 -308 633q0 336 205 586q299 365 813 365q346 0 570 -173q264 -204 264 -536q0 -338 -250 -539q-139 -112 -318 -112q-208 0 -208 166v4zM1233 707q-29 176 -184 176
q-146 0 -234 -153q-74 -129 -74 -286q0 -204 174 -204q97 0 171 73q68 67 92 166z" />
    <glyph glyph-name="A" unicode="A" horiz-adv-x="791" 
d="M12 0l238 1446h291l237 -1446h-229l-45 313h-225l-48 -313h-219zM307 518h170l-76 604h-14z" />
    <glyph glyph-name="B" unicode="B" horiz-adv-x="868" 
d="M336 844h90q129 0 129 198q0 195 -147 195h-72v-393zM336 209h96q139 0 139 207q0 106 -29 155q-37 64 -134 64h-72v-426zM115 0v1446h295q179 0 275.5 -98.5t96.5 -278.5q0 -214 -155 -330q174 -100 174 -352q0 -387 -357 -387h-329z" />
    <glyph glyph-name="C" unicode="C" horiz-adv-x="850" 
d="M88 371v741q0 169 90 265q93 100 260 100q162 0 252 -106q84 -100 84 -265v-139h-229v159q0 150 -115 150t-115 -150v-807q0 -151 115 -151t115 151v197h229v-151q0 -180 -81 -283q-89 -113 -263 -113q-342 0 -342 402z" />
    <glyph glyph-name="D" unicode="D" horiz-adv-x="881" 
d="M336 213h113q116 0 116 152v696q0 172 -178 172h-51v-1020zM115 0v1446h317q361 0 361 -397v-646q0 -199 -75 -295q-84 -108 -276 -108h-327z" />
    <glyph glyph-name="E" unicode="E" horiz-adv-x="754" 
d="M115 0v1446h581v-209h-358v-379h258v-209h-258v-432h358v-217h-581z" />
    <glyph glyph-name="F" unicode="F" horiz-adv-x="684" 
d="M115 0v1446h581v-209h-358v-379h258v-209h-258v-649h-223z" />
    <glyph glyph-name="G" unicode="G" horiz-adv-x="852" 
d="M88 371v741q0 169 90 265q93 100 260 100q322 0 322 -371v-133h-215v153q0 150 -115 150t-115 -150v-807q0 -151 115 -151t115 151v226h-135v184h350v-729l-150 100q-72 -131 -215 -131q-307 0 -307 402z" />
    <glyph glyph-name="H" unicode="H" horiz-adv-x="897" 
d="M115 1446h221v-590h223v590h223v-1446h-223v647h-223v-647h-221v1446z" />
    <glyph glyph-name="I" unicode="I" horiz-adv-x="451" 
d="M115 0v1446h227v-1446h-227z" />
    <glyph glyph-name="J" unicode="J" horiz-adv-x="473" 
d="M-12 0v223l16.5 -2t28.5 -2q117 0 117 121v1106h223v-1063q0 -383 -260 -383h-125z" />
    <glyph glyph-name="K" unicode="K" horiz-adv-x="840" 
d="M115 0v1446h223v-610q17 62 31 94l221 516h221l-248 -494l277 -952h-232l-188 727l-82 -164v-563h-223z" />
    <glyph glyph-name="L" unicode="L" horiz-adv-x="692" 
d="M680 0l16 216q-164 -1 -180.5 -3t-28.5 -2q-117 0 -117 121v1106h-223v-1063q0 -195 64 -289q67 -98 196 -94z" />
    <glyph glyph-name="M" unicode="M" horiz-adv-x="1149" 
d="M115 0v1446h297l145 -801q18 -99 18 -217q0 94 21 215l139 803h301v-1446h-209v913q0 80 17 252q0 -3 -13 -80q-10 -62 -22 -125l-182 -960h-111l-174 961q-10 72 -35 204q15 -159 15 -252v-913h-207z" />
    <glyph glyph-name="N" unicode="N" horiz-adv-x="938" 
d="M115 0v1446h200l283 -864q17 -51 43 -154q-25 143 -25 195v823h209v-1446h-209l-272 799q0 1 -1 3l-4 12q-29 86 -42 142q25 -158 25 -200v-756h-207z" />
    <glyph glyph-name="O" unicode="O" horiz-adv-x="862" 
d="M545 319v807q0 150 -115 150t-115 -150v-807q0 -151 115 -151t115 151zM88 1112q0 169 90 265q93 100 260 100q162 0 252 -106q84 -100 84 -265v-741q0 -180 -81 -283q-89 -113 -263 -113q-342 0 -342 402v741z" />
    <glyph glyph-name="P" unicode="P" horiz-adv-x="829" 
d="M336 795h88q91 0 120 74q17 43 17 155q0 107 -21 149q-31 64 -124 64h-80v-442zM113 0v1446h327q195 0 278 -115q70 -98 70 -303q0 -175 -61 -292q-78 -148 -238 -148h-153v-588h-223z" />
    <glyph glyph-name="Q" unicode="Q" horiz-adv-x="860" 
d="M513 319v807q0 150 -115 150t-115 -150v-807q0 -151 115 -151t115 151zM712 167q23 -44 81 -44h11v-221h-25q-151 0 -213 116q-84 -49 -182 -49q-169 0 -254 121q-74 104 -74 281v741q0 169 90 265q93 100 260 100q162 0 252 -106q84 -100 84 -265v-741q0 -127 -30 -198z
" />
    <glyph glyph-name="R" unicode="R" horiz-adv-x="854" 
d="M336 1237v-420h88q89 0 119 70q18 43 18 149q0 101 -23 143q-31 58 -122 58h-80zM336 608v-608h-223v1446h327q195 0 278 -115q70 -98 70 -303q0 -258 -141 -356l164 -672h-231l-138 608h-106z" />
    <glyph glyph-name="S" unicode="S" horiz-adv-x="803" 
d="M47 367l213 32q12 -215 148 -215q62 0 99.5 39t37.5 101q0 113 -180 292l-21 21q-138 138 -188 210q-88 128 -88 261q0 150 98.5 256t247.5 106q150 0 240 -106q82 -97 94 -252l-218 -31q-11 181 -122 181q-119 0 -119 -134q0 -126 210 -329l13 -13q129 -125 177 -203
q73 -116 73 -255q0 -155 -96 -258t-250 -103q-174 0 -272 115q-89 106 -97 285z" />
    <glyph glyph-name="T" unicode="T" horiz-adv-x="662" 
d="M-12 1237v209h686v-209h-232v-1237h-223v1237h-231z" />
    <glyph glyph-name="U" unicode="U" horiz-adv-x="885" 
d="M98 1446h228v-1120q0 -138 118 -138q113 0 113 138v1120h227v-1081q0 -180 -79 -283q-88 -113 -263 -113q-344 0 -344 402v1075z" />
    <glyph glyph-name="V" unicode="V" horiz-adv-x="786" 
d="M20 1446h218l133 -856q24 -154 24 -301v-26q6 204 25 327l129 856h219l-256 -1446h-233z" />
    <glyph glyph-name="W" unicode="W" horiz-adv-x="1126" 
d="M12 1446h213l99 -857q14 -121 14 -227v-28q0 14 4 79q9 168 14 205l111 828h190l119 -856q15 -108 15 -256q0 4 2 42q10 185 16 242l92 828h211l-225 -1446h-187l-122 839q-15 103 -15 257q-2 -96 -18 -284l-119 -812h-186z" />
    <glyph glyph-name="X" unicode="X" horiz-adv-x="764" 
d="M-4 0l264 735l-260 711h231l136 -426h10l143 426h228l-252 -692l274 -754h-233l-146 471h-8l-158 -471h-229z" />
    <glyph glyph-name="Y" unicode="Y" horiz-adv-x="702" 
d="M-25 1446h226l145 -578h14l138 578h227l-260 -846v-600h-223v573z" />
    <glyph glyph-name="Z" unicode="Z" horiz-adv-x="774" 
d="M63 0v223l400 1000h-367v223h609v-209l-404 -1014h404v-223h-642z" />
    <glyph glyph-name="bracketleft" unicode="[" horiz-adv-x="563" 
d="M141 -186v1661h355v-185h-154v-1290h154v-186h-355z" />
    <glyph glyph-name="backslash" unicode="\" horiz-adv-x="500" 
d="M653 -190h-164l-585 1665h164z" />
    <glyph glyph-name="bracketright" unicode="]" horiz-adv-x="563" 
d="M422 -186h-352v186h153v1290h-153v185h352v-1661z" />
    <glyph glyph-name="asciicircum" unicode="^" horiz-adv-x="2048" 
d="M915 1460h218l495 -561h-207l-397 397l-399 -397h-207z" />
    <glyph glyph-name="underscore" unicode="_" 
d="M0 -311h1024v-172h-1024v172z" />
    <glyph glyph-name="grave" unicode="`" 
d="M467 1167l-188 222h251l99 -222h-162z" />
    <glyph glyph-name="a" unicode="a" horiz-adv-x="729" 
d="M452 472h-176l3 -188q2 -125 86 -125q89 0 88 125zM658 765v-479q0 -137 -81 -224q-84 -90 -220 -90t-209.5 81.5t-73.5 273.5q0 340 378 325l1 107q1 149 -86 149q-49 0 -103 -20l-80 156l160 48q314 6 314 -327z" />
    <glyph glyph-name="b" unicode="b" horiz-adv-x="741" 
d="M297 203q45 -49 94 -49q70 0 70 96v551q0 110 -82 110q-43 0 -82 -43v-665zM96 0v1446h201v-465q82 100 176 100q193 0 193 -268v-592q0 -235 -181 -235q-112 0 -188 96v-82h-201z" />
    <glyph glyph-name="c" unicode="c" horiz-adv-x="729" 
d="M76 301v471q0 142 78 230q81 92 221 92q139 0 214 -89q70 -83 70 -225v-84h-204v86q0 125 -86 125q-88 0 -88 -125v-475q0 -149 86 -149q60 0 78 48q10 26 10 101v82h204v-88q0 -330 -297 -330q-140 0 -216 97q-70 89 -70 233z" />
    <glyph glyph-name="d" unicode="d" horiz-adv-x="741" 
d="M465 203q-45 -49 -94 -49q-70 0 -70 96v551q0 110 82 110q43 0 82 -43v-665zM666 0v1446h-201v-465q-82 100 -176 100q-193 0 -193 -268v-592q0 -235 181 -235q112 0 188 96v-82h201z" />
    <glyph glyph-name="e" unicode="e" horiz-adv-x="729" 
d="M250 596h176l-3 188q-2 125 -86 125q-89 0 -88 -125zM44 303v479q0 137 82.5 225.5t218.5 88.5t209.5 -81.5t73.5 -273.5q0 -340 -378 -325l-1 -107q-1 -149 86 -149q49 0 103 20l80 -156l-160 -48q-314 -6 -314 327z" />
    <glyph glyph-name="f" unicode="f" horiz-adv-x="477" 
d="M123 0v901h-113v166h113v125q0 254 231 254q59 0 115 -16v-174l-53 10q-94 0 -94 -90v-109h127v-166h-127v-901h-199z" />
    <glyph glyph-name="g" unicode="g" horiz-adv-x="707" 
d="M418 553v248q0 108 -88 108q-86 0 -86 -108v-248q0 -109 86 -109q88 0 88 109zM301 -25q-76 -35 -76 -84q0 -42 54 -66q42 -18 90 -18q59 0 107 16q69 24 69 71q0 79 -244 81zM191 313q-130 81 -130 252v213q0 142 64 225q71 91 209 91q133 0 231 -119q36 -66 36 -92
q0 -7 -3 -11q2 -36 2 -71v-238q0 -289 -256 -287q-7 0 -48 4q-3 0 -5 1q-47 -35 -47 -68q0 -46 117 -53q73 -4 112 -10q252 -37 252 -240q0 -252 -385 -252q-334 0 -334 170q0 53 45 98q38 38 133 76q-123 31 -123 123q0 93 130 188z" />
    <glyph glyph-name="h" unicode="h" horiz-adv-x="756" 
d="M96 0v1446h201v-496q113 131 227 131q140 0 140 -188v-893h-199v805q0 84 -53 84q-51 0 -115 -80v-809h-201z" />
    <glyph glyph-name="i" unicode="i" horiz-adv-x="393" 
d="M96 1247v199h201v-199h-201zM96 0v1067h201v-1067h-201z" />
    <glyph glyph-name="j" unicode="j" horiz-adv-x="403" 
d="M104 1247v199h199v-199h-199zM303 1067v-1149q0 -254 -231 -254q-60 0 -113 17v172q27 -9 59 -9q35 0 60.5 21.5t25.5 56.5v1145h199z" />
    <glyph glyph-name="k" unicode="k" horiz-adv-x="711" 
d="M96 0v1446h201v-770l182 391h213l-198 -358l211 -709h-201l-139 528l-68 -125v-403h-201z" />
    <glyph glyph-name="l" unicode="l" horiz-adv-x="393" 
d="M24 1403v-1149q0 -254 231 -254q60 0 113 17v172q-27 -9 -59 -9q-35 0 -60.5 21.5t-25.5 56.5v1145h-199z" />
    <glyph glyph-name="m" unicode="m" horiz-adv-x="1122" 
d="M96 0v1067h201v-111q103 125 223 125q114 0 142 -125q100 123 221 123q147 0 147 -180v-899h-201v805q0 84 -53 84q-52 0 -114 -80v-809h-185v805q0 84 -57 84q-56 0 -123 -80v-809h-201z" />
    <glyph glyph-name="n" unicode="n" horiz-adv-x="756" 
d="M96 0v1067h201v-117q113 131 227 131q140 0 140 -188v-893h-199v805q0 84 -53 84q-51 0 -115 -80v-809h-201z" />
    <glyph glyph-name="o" unicode="o" horiz-adv-x="727" 
d="M281 250q0 -92 81 -92q87 0 87 92v581q0 78 -87 78q-81 0 -81 -78v-581zM76 823q0 129 84 202q80 69 211 69q123 0 201.5 -77t78.5 -200v-551q0 -137 -76.5 -215t-212.5 -78q-133 0 -210 83q-76 80 -76 214v553z" />
    <glyph glyph-name="p" unicode="p" horiz-adv-x="741" 
d="M297 864v-665q41 -45 82 -45q82 0 82 112v551q0 94 -70 94q-51 0 -94 -47zM96 -336v1403h201v-84q76 98 188 98q181 0 181 -237v-590q0 -268 -193 -268q-94 0 -176 100v-422h-201z" />
    <glyph glyph-name="q" unicode="q" horiz-adv-x="741" 
d="M281 266q0 -112 79 -112q41 0 84 45v665q-43 47 -94 47q-69 0 -69 -94v-551zM76 254v590q0 237 178 237q114 0 190 -98v84h199v-1403h-199v422q-82 -100 -176 -100q-192 0 -192 268z" />
    <glyph glyph-name="r" unicode="r" horiz-adv-x="539" 
d="M96 0v1067h201v-145q76 157 211 157h20v-223q-28 14 -65 14q-166 0 -166 -172v-698h-201z" />
    <glyph glyph-name="s" unicode="s" horiz-adv-x="686" 
d="M29 289l192 43q24 -174 131 -174q92 0 92 94q0 85 -207 240q-186 139 -186 311q0 131 80.5 211t212.5 80q126 0 202 -76q73 -74 82 -201l-188 -45q-22 135 -106 135q-86 0 -86 -94q0 -69 141 -181q29 -23 59 -48q95 -79 136 -139q57 -83 57 -183q0 -133 -81.5 -212
t-215.5 -79q-136 0 -221 93q-76 84 -94 225z" />
    <glyph glyph-name="t" unicode="t" horiz-adv-x="545" 
d="M150 225v676h-123l29 171l94 -5v307h198v-307h148v-166h-148v-657q0 -92 88 -92q19 0 59 10l1 -174q-53 -17 -115 -17q-231 0 -231 254z" />
    <glyph glyph-name="u" unicode="u" horiz-adv-x="756" 
d="M657 1067v-1067h-198v117q-113 -133 -230 -133q-139 0 -139 190v893h199v-819q0 -72 53 -72t117 80v811h198z" />
    <glyph glyph-name="v" unicode="v" horiz-adv-x="614" 
d="M0 1067h184l123 -657h10l101 657h196l-206 -1067h-183z" />
    <glyph glyph-name="w" unicode="w" horiz-adv-x="940" 
d="M0 1067h190l80 -511q12 -79 21 -261q2 105 26 260l80 512h152l88 -512q23 -136 29 -260v43q0 138 12 217l78 512h184l-182 -1067h-174l-92 520q-13 75 -19 243q-4 -82 -20 -244l-78 -519h-176z" />
    <glyph glyph-name="x" unicode="x" horiz-adv-x="621" 
d="M-4 0l203 557l-189 510h199l96 -287h10l95 287h204l-196 -506l203 -561h-195l-113 328h-8l-115 -328h-194z" />
    <glyph glyph-name="y" unicode="y" horiz-adv-x="653" 
d="M16 1067h187l123 -684h8l100 684h199l-225 -1141q-27 -135 -89 -196q-69 -66 -202 -66q-52 0 -80 3v190h37q87 0 123 41q33 38 39 127z" />
    <glyph glyph-name="z" unicode="z" horiz-adv-x="635" 
d="M53 0v178l326 703h-301v186h508v-176l-312 -701h312v-190h-533z" />
    <glyph glyph-name="braceleft" unicode="{" 
d="M874 1477v-179q-8 0 -23.5 1t-23.5 1q-116 0 -154 -50q-32 -43 -32 -165v-241q0 -141 -35 -204q-44 -80 -168 -110q124 -29 168 -109q35 -64 35 -204v-240q0 -122 33 -166q39 -51 155 -51q8 0 22.5 1t22.5 1v-176h-63q-189 0 -272 49q-69 41 -91 133q-12 52 -12 166v248
q0 136 -47 195q-52 67 -184 67q-7 0 -21.5 -1t-21.5 -1v179q7 0 21.5 -1.5t21.5 -1.5q131 0 184 66q47 59 47 195v247q0 117 12 168q21 92 91 133q84 50 290 50h45z" />
    <glyph glyph-name="bar" unicode="|" 
d="M424 1565h178v-2048h-178v2048z" />
    <glyph glyph-name="braceright" unicode="}" 
d="M152 1477h45q204 0 288 -50q69 -41 91 -133q12 -52 12 -168v-247q0 -137 47 -195q52 -66 184 -66q7 0 21.5 1.5t21.5 1.5v-179q-7 0 -21.5 1t-21.5 1q-132 0 -184 -67q-47 -59 -47 -195v-248q0 -115 -12 -167q-22 -90 -91 -132q-82 -49 -288 -49h-45v176q8 0 22.5 -1
t22.5 -1q116 0 154 51q32 43 32 166v240q0 139 36 204q45 79 169 109q-125 30 -169 109q-36 65 -36 205v241q0 122 -31 164q-38 51 -153 51q-8 0 -23.5 -1t-23.5 -1v179z" />
    <glyph glyph-name="asciitilde" unicode="~" horiz-adv-x="1706" 
d="M1530 784v-184q-205 -141 -381 -141q-89 0 -200 38l-67 23q-212 74 -319 74q-158 0 -385 -160v187q211 143 387 143q117 0 294 -60q1 0 42 -15q162 -58 250 -58q166 0 379 153z" />
    <glyph glyph-name="nonbreakingspace" unicode="&#xa0;" horiz-adv-x="831" 
 />
    <glyph glyph-name="exclamdown" unicode="&#xa1;" horiz-adv-x="440" 
d="M152 1028h135l47 -1028h-230zM113 1446h213v-227h-213v227z" />
    <glyph glyph-name="cent" unicode="&#xa2;" horiz-adv-x="831" 
d="M125 492v479q0 246 229 305v244h123v-240q125 -30 180 -106q52 -72 52 -203v-84h-205v86q0 125 -86 125q-88 0 -88 -125v-477q0 -70 11 -99q18 -49 75 -49q61 0 78 47q10 26 10 101v84h205v-88q0 -281 -232 -324v-244h-123v242q-229 61 -229 326z" />
    <glyph glyph-name="sterling" unicode="&#xa3;" horiz-adv-x="831" 
d="M104 0v193q84 15 134 80q49 62 49 149q0 56 -27 166h-139v184h86q-86 213 -86 342q0 147 82 250q89 111 233 111q334 0 334 -447v-29l-221 1q-4 115 -16 162q-25 106 -99 106q-90 0 -90 -135q0 -99 72 -361h246v-184h-205v-7q8 -79 8 -114q0 -142 -82 -258h391v-209h-670
z" />
    <glyph glyph-name="currency" unicode="&#xa4;" horiz-adv-x="1241" 
d="M623 1176q-120 0 -205.5 -85.5t-85.5 -205.5q0 -122 84.5 -205.5t206.5 -83.5q121 0 205.5 84t84.5 205q0 120 -85 205.5t-205 85.5zM168 1430l203 -203q110 82 250 82q143 0 251 -82l203 203l94 -93l-204 -204q79 -109 79 -248q0 -141 -79 -248l204 -205l-94 -92
l-203 205q-111 -82 -249 -82q-144 0 -252 82l-203 -205l-92 92l203 205q-80 106 -80 248q0 140 80 248l-203 204z" />
    <glyph glyph-name="yen" unicode="&#xa5;" horiz-adv-x="702" 
d="M-12 1446h213l141 -590h14l129 590h220l-158 -533h160v-90h-187l-39 -133h226v-90h-252v-600h-213v600h-248v90h221l-39 133h-182v90h153z" />
    <glyph glyph-name="brokenbar" unicode="&#xa6;" 
d="M424 408h178v-758h-178v758zM424 1432h178v-758h-178v758z" />
    <glyph glyph-name="section" unicode="&#xa7;" horiz-adv-x="885" 
d="M242 819q0 -68 141 -209l15 -15q116 -116 169 -116q72 0 72 78q0 53 -94 156q-169 186 -230 186q-73 0 -73 -80zM129 31l131 104q98 -115 164 -115q102 0 102 101q0 68 -110 184l-191 201q-162 170 -162 293q0 92 57 154q56 59 148 75q-94 115 -94 207q0 109 78 176
q73 64 184 64q182 0 299 -156l-129 -98q-91 100 -153 100q-95 0 -95 -98q0 -51 119 -170l172 -172q168 -168 168 -308q0 -182 -205 -225q99 -103 99 -229q0 -123 -74.5 -191.5t-198.5 -68.5q-187 0 -309 172z" />
    <glyph glyph-name="dieresis" unicode="&#xa8;" 
d="M555 1178v200h184v-200h-184zM285 1178v200h182v-200h-182z" />
    <glyph glyph-name="copyright" unicode="&#xa9;" horiz-adv-x="1706" 
d="M1206 903h-166q-21 154 -190 154q-115 0 -170 -112q-41 -86 -41 -214q0 -317 221 -317q166 0 189 168h165q-7 -142 -115 -224q-98 -75 -245 -75q-192 0 -298 127q-99 119 -99 315q0 197 100 321q109 134 301 134q137 0 233 -69q105 -76 115 -208zM854 1362
q-265 0 -444 -182q-187 -190 -187 -449q0 -257 187 -444t444 -187q188 0 350.5 108t234.5 282q46 112 46 241q0 265 -183 448t-448 183zM852 1470q310 0 525.5 -216.5t215.5 -522.5q0 -311 -213 -520q-225 -221 -528 -221q-221 0 -409.5 127.5t-273.5 332.5q-56 134 -56 281
q0 300 221 524q212 215 518 215z" />
    <glyph glyph-name="ordfeminine" unicode="&#xaa;" horiz-adv-x="547" 
d="M330 887v194q-142 -87 -142 -190q0 -74 48 -74q56 0 94 70zM334 784q-75 -94 -168 -94q-131 0 -131 166q0 120 94 207q59 55 201 125v80q0 69 -51 69q-68 0 -68 -63v-41h-152v20q0 95 64 154t160 59q200 0 200 -233v-320q0 -152 13 -213l-148 1q-11 24 -14 83z" />
    <glyph glyph-name="guillemotleft" unicode="&#xab;" horiz-adv-x="739" 
d="M76 530l145 318h172l-139 -318l139 -315h-172zM350 530l142 318h172l-140 -318l140 -315h-172z" />
    <glyph glyph-name="logicalnot" unicode="&#xac;" horiz-adv-x="1706" 
d="M254 862h1198v-502h-166v336h-1032v166z" />
    <glyph glyph-name="sfthyphen" unicode="&#xad;" horiz-adv-x="635" 
d="M80 457v151h475v-151h-475z" />
    <glyph glyph-name="registered" unicode="&#xae;" horiz-adv-x="1706" 
d="M729 1047v-261h117q192 0 192 127q0 134 -200 134h-109zM551 1159h319q351 0 351 -225q0 -190 -185 -229l185 -375h-199l-164 346h-129v-346h-178v829zM854 1362q-262 0 -440 -180q-191 -193 -191 -451q0 -257 183 -442q187 -189 438 -189q266 0 456 185q185 180 185 436
q0 272 -180 453q-187 188 -451 188zM852 1470q313 0 530 -221q211 -215 211 -518q0 -313 -217 -524q-223 -217 -524 -217q-304 0 -524 223q-215 218 -215 518q0 221 127 412t331 274q130 53 281 53z" />
    <glyph glyph-name="macron" unicode="&#xaf;" 
d="M313 1212v131h398v-131h-398z" />
    <glyph glyph-name="macron" unicode="&#x2c9;" 
d="M313 1212v131h398v-131h-398z" />
    <glyph glyph-name="degree" unicode="&#xb0;" horiz-adv-x="674" 
d="M338 1350q-78 0 -132 -54t-54 -131t54.5 -131.5t131.5 -54.5t130.5 54t53.5 132t-53.5 131.5t-130.5 53.5zM338 1460q123 0 209 -87t86 -210t-87 -209t-210 -86q-124 0 -208.5 85.5t-84.5 209.5q0 125 85 211t210 86z" />
    <glyph glyph-name="plusminus" unicode="&#xb1;" horiz-adv-x="1706" 
d="M254 182h1198v-168h-1198v168zM768 1206h170v-334h514v-165h-514v-334h-170v334h-514v165h514v334z" />
    <glyph glyph-name="twosuperior" unicode="&#xb2;" horiz-adv-x="535" 
d="M41 578v124q299 376 299 539q0 105 -66 105q-77 0 -77 -121v-31h-144v14q0 254 223 254q94 0 147.5 -56t53.5 -151q0 -122 -100 -293q-49 -86 -178 -260h266v-124h-424z" />
    <glyph glyph-name="threesuperior" unicode="&#xb3;" horiz-adv-x="504" 
d="M37 827h139v-34q0 -109 70 -109q78 0 78 123q0 81 -20 115q-27 45 -101 45h-19v123h23q104 0 104 135q0 112 -63 112q-68 0 -68 -94v-35h-139v9q0 243 207 243q192 0 192 -246q0 -142 -82 -186q101 -44 101 -205q0 -262 -205 -262q-217 0 -217 246v20z" />
    <glyph glyph-name="acute" unicode="&#xb4;" 
d="M559 1167h-162l97 222h254z" />
    <glyph glyph-name="mu" unicode="&#xb5;" horiz-adv-x="1208" 
d="M205 1081h229l-125 -635q-12 -61 -12 -104q0 -197 182 -197q142 0 220 126q51 84 85 255l109 555h225l-145 -739q-19 -97 -19 -133q0 -66 68 -66q22 0 34 2l-32 -159q-60 -17 -150 -17q-149 0 -149 125v15q-87 -142 -254 -142q-157 0 -235 109l-99 -506h-229z" />
    <glyph glyph-name="mu" unicode="&#x3bc;" horiz-adv-x="1208" 
d="M205 1081h229l-125 -635q-12 -61 -12 -104q0 -197 182 -197q142 0 220 126q51 84 85 255l109 555h225l-145 -739q-19 -97 -19 -133q0 -66 68 -66q22 0 34 2l-32 -159q-60 -17 -150 -17q-149 0 -149 125v15q-87 -142 -254 -142q-157 0 -235 109l-99 -506h-229z" />
    <glyph glyph-name="paragraph" unicode="&#xb6;" 
d="M969 1479v-99h-117v-1380h-129v1380h-168v-1380h-131v784q-161 6 -262 94q-107 95 -107 252q0 166 115 261q107 88 276 88h523z" />
    <glyph glyph-name="ch270" unicode="&#xb7;" horiz-adv-x="440" 
d="M92 741q0 53 37 91t90 38t91 -38t38 -91q0 -54 -37.5 -91.5t-91.5 -37.5q-52 0 -89.5 38.5t-37.5 90.5z" />
    <glyph glyph-name="ch270" unicode="&#x2219;" horiz-adv-x="440" 
d="M92 741q0 53 37 91t90 38t91 -38t38 -91q0 -54 -37.5 -91.5t-91.5 -37.5q-52 0 -89.5 38.5t-37.5 90.5z" />
    <glyph glyph-name="cedilla" unicode="&#xb8;" 
d="M299 -240q70 -16 131 -16q82 0 82 51q0 60 -111 60h-10l62 145h69l-35 -78h17q201 0 201 -127q0 -131 -240 -131q-82 0 -166 19v77z" />
    <glyph glyph-name="onesuperior" unicode="&#xb9;" horiz-adv-x="350" 
d="M-6 1251v86q110 35 164 109h98v-868h-147v673h-115z" />
    <glyph glyph-name="ordmasculine" unicode="&#xba;" horiz-adv-x="545" 
d="M211 874q0 -63 61 -63q64 0 64 63v408q0 55 -64 55q-61 0 -61 -55v-408zM57 1276q0 92 66 144q61 46 156 46q89 0 149.5 -53t60.5 -141v-385q0 -99 -58.5 -152t-158.5 -53q-98 0 -156.5 55t-58.5 152v387z" />
    <glyph glyph-name="guillemotright" unicode="&#xbb;" horiz-adv-x="739" 
d="M664 530l-146 -315h-174l139 315l-139 318h174zM389 530l-141 -315h-172l139 315l-139 318h172z" />
    <glyph glyph-name="onequarter" unicode="&#xbc;" horiz-adv-x="1126" 
d="M877 303v297l-115 -297h115zM643 197v106l234 506h131v-506h86v-106h-86v-197h-131v197h-234zM57 0l654 1446h176l-654 -1446h-176zM-6 1264v82q106 32 156 98h94v-809h-140v629h-110z" />
    <glyph glyph-name="onehalf" unicode="&#xbd;" horiz-adv-x="1120" 
d="M649 0v117q287 350 287 501q0 99 -64 99q-38 0 -54 -25q-15 -21 -19 -87l-2 -30h-135v15q0 235 212 235q88 0 139.5 -52t51.5 -140q0 -113 -95 -274q-45 -75 -169 -242h254v-117h-406zM57 0l654 1446h176l-654 -1446h-176zM-6 1264v82q106 32 156 98h94v-809h-140v629
h-110z" />
    <glyph glyph-name="threequarters" unicode="&#xbe;" horiz-adv-x="1272" 
d="M1022 303v297l-115 -297h115zM788 197v106l234 506h131v-506h86v-106h-86v-197h-131v197h-234zM203 0l653 1446h176l-653 -1446h-176zM37 868h133v-32q0 -103 66 -103q73 0 73 117q0 75 -19 107q-26 42 -95 42h-19v113q4 0 10.5 1t10.5 1q100 0 100 125q0 104 -59 104
q-66 0 -66 -88v-30h-131v6q0 229 197 229q182 0 182 -229q0 -136 -78 -174q96 -42 96 -193q0 -246 -196 -246q-205 0 -205 230v20z" />
    <glyph glyph-name="questiondown" unicode="&#xbf;" horiz-adv-x="631" 
d="M428 1018q0 -10 1 -30t1 -30q0 -209 -63 -374q-5 -12 -81 -165q-57 -115 -57 -159q0 -98 84 -98q74 0 138 153l174 -69q-80 -277 -310 -277q-132 0 -209 74t-77 205q0 103 70 235q110 206 114 217q43 110 43 250q0 44 -2 68h174zM449 1444v-238h-216v238h216z" />
    <glyph glyph-name="Agrave" unicode="&#xc0;" horiz-adv-x="791" 
d="M12 0l238 1446h291l237 -1446h-229l-45 313h-225l-48 -313h-219zM307 518h170l-76 604h-14zM350 1519l-188 222h251l99 -222h-162z" />
    <glyph glyph-name="Aacute" unicode="&#xc1;" horiz-adv-x="791" 
d="M12 0l238 1446h291l237 -1446h-229l-45 313h-225l-48 -313h-219zM307 518h170l-76 604h-14zM442 1519h-162l97 222h254z" />
    <glyph glyph-name="Acircumflex" unicode="&#xc2;" horiz-adv-x="791" 
d="M12 0l238 1446h291l237 -1446h-229l-45 313h-225l-48 -313h-219zM307 518h170l-76 604h-14zM305 1519h-162l154 222h196l154 -222h-162l-90 109z" />
    <glyph glyph-name="Atilde" unicode="&#xc3;" horiz-adv-x="791" 
d="M12 0l238 1446h291l237 -1446h-229l-45 313h-225l-48 -313h-219zM307 518h170l-76 604h-14zM649 1732v-16q0 -186 -158 -186q-41 0 -107 30.5t-85 30.5q-51 0 -51 -55v-8h-107v16q0 184 158 184q41 0 107 -30.5t85 -30.5q51 0 51 57v8h107z" />
    <glyph glyph-name="Adieresis" unicode="&#xc4;" horiz-adv-x="791" 
d="M12 0l238 1446h291l237 -1446h-229l-45 313h-225l-48 -313h-219zM307 518h170l-76 604h-14zM438 1530v200h184v-200h-184zM168 1530v200h182v-200h-182z" />
    <glyph glyph-name="Aring" unicode="&#xc5;" horiz-adv-x="791" 
d="M328 1671q0 -27 20 -47t47 -20q68 0 68 67q0 68 -68 68q-28 0 -47.5 -20t-19.5 -48zM217 1671q0 74 52 126t126 52t126 -52t52 -126q0 -75 -51.5 -126.5t-126.5 -51.5t-126.5 51.5t-51.5 126.5zM12 0l238 1446h291l237 -1446h-229l-45 313h-225l-48 -313h-219zM307 518
h170l-76 604h-14z" />
    <glyph glyph-name="AE" unicode="&#xc6;" horiz-adv-x="1143" 
d="M324 547h176v608h-15zM-61 0l448 1446h694v-209h-364v-379h266v-209h-266v-432h364v-217h-579v346h-232l-94 -346h-237z" />
    <glyph glyph-name="Ccedilla" unicode="&#xc7;" horiz-adv-x="850" 
d="M88 371v741q0 169 90 265q93 100 260 100q162 0 252 -106q84 -100 84 -265v-139h-229v159q0 150 -115 150t-115 -150v-807q0 -151 115 -151t115 151v197h229v-151q0 -180 -81 -283q-89 -113 -263 -113q-342 0 -342 402zM213 -240q70 -16 131 -16q82 0 82 51q0 60 -111 60
h-10l62 145h69l-35 -78h17q201 0 201 -127q0 -131 -240 -131q-82 0 -166 19v77z" />
    <glyph glyph-name="Egrave" unicode="&#xc8;" horiz-adv-x="754" 
d="M115 0v1446h581v-209h-358v-379h258v-209h-258v-432h358v-217h-581zM365 1519l-188 222h251l99 -222h-162z" />
    <glyph glyph-name="Eacute" unicode="&#xc9;" horiz-adv-x="754" 
d="M115 0v1446h581v-209h-358v-379h258v-209h-258v-432h358v-217h-581zM457 1519h-162l97 222h254z" />
    <glyph glyph-name="Ecircumflex" unicode="&#xca;" horiz-adv-x="754" 
d="M115 0v1446h581v-209h-358v-379h258v-209h-258v-432h358v-217h-581zM320 1519h-162l154 222h196l154 -222h-162l-90 109z" />
    <glyph glyph-name="Edieresis" unicode="&#xcb;" horiz-adv-x="754" 
d="M115 0v1446h581v-209h-358v-379h258v-209h-258v-432h358v-217h-581zM453 1530v200h184v-200h-184zM183 1530v200h182v-200h-182z" />
    <glyph glyph-name="Igrave" unicode="&#xcc;" horiz-adv-x="451" 
d="M115 0v1446h227v-1446h-227zM180 1519l-188 222h251l99 -222h-162z" />
    <glyph glyph-name="Iacute" unicode="&#xcd;" horiz-adv-x="451" 
d="M115 0v1446h227v-1446h-227zM272 1519h-162l97 222h254z" />
    <glyph glyph-name="Icircumflex" unicode="&#xce;" horiz-adv-x="451" 
d="M115 0v1446h227v-1446h-227zM135 1519h-162l154 222h196l154 -222h-162l-90 109z" />
    <glyph glyph-name="Idieresis" unicode="&#xcf;" horiz-adv-x="451" 
d="M115 0v1446h227v-1446h-227zM268 1530v200h184v-200h-184zM-2 1530v200h182v-200h-182z" />
    <glyph glyph-name="Eth" unicode="&#xd0;" horiz-adv-x="889" 
d="M346 213h113q116 0 116 152v696q0 172 -178 172h-51v-397h115v-166h-115v-457zM123 0v670h-113v166h113v610h319q361 0 361 -397v-646q0 -199 -75 -295q-85 -108 -277 -108h-328z" />
    <glyph glyph-name="Ntilde" unicode="&#xd1;" horiz-adv-x="938" 
d="M115 0v1446h200l283 -864q17 -51 43 -154q-25 143 -25 195v823h209v-1446h-209l-272 799q0 1 -1 3l-4 12q-29 86 -42 142q25 -158 25 -200v-756h-207zM737 1732v-16q0 -186 -158 -186q-41 0 -107 30.5t-85 30.5q-51 0 -51 -55v-8h-107v16q0 184 158 184q41 0 107 -30.5
t85 -30.5q51 0 51 57v8h107z" />
    <glyph glyph-name="Ograve" unicode="&#xd2;" horiz-adv-x="862" 
d="M545 319v807q0 150 -115 150t-115 -150v-807q0 -151 115 -151t115 151zM88 1112q0 169 90 265q93 100 260 100q162 0 252 -106q84 -100 84 -265v-741q0 -180 -81 -283q-89 -113 -263 -113q-342 0 -342 402v741zM387 1519l-188 222h251l99 -222h-162z" />
    <glyph glyph-name="Oacute" unicode="&#xd3;" horiz-adv-x="862" 
d="M545 319v807q0 150 -115 150t-115 -150v-807q0 -151 115 -151t115 151zM88 1112q0 169 90 265q93 100 260 100q162 0 252 -106q84 -100 84 -265v-741q0 -180 -81 -283q-89 -113 -263 -113q-342 0 -342 402v741zM479 1519h-162l97 222h254z" />
    <glyph glyph-name="Ocircumflex" unicode="&#xd4;" horiz-adv-x="862" 
d="M545 319v807q0 150 -115 150t-115 -150v-807q0 -151 115 -151t115 151zM88 1112q0 169 90 265q93 100 260 100q162 0 252 -106q84 -100 84 -265v-741q0 -180 -81 -283q-89 -113 -263 -113q-342 0 -342 402v741zM342 1519h-162l154 222h196l154 -222h-162l-90 109z" />
    <glyph glyph-name="Otilde" unicode="&#xd5;" horiz-adv-x="862" 
d="M545 319v807q0 150 -115 150t-115 -150v-807q0 -151 115 -151t115 151zM88 1112q0 169 90 265q93 100 260 100q162 0 252 -106q84 -100 84 -265v-741q0 -180 -81 -283q-89 -113 -263 -113q-342 0 -342 402v741zM686 1732v-16q0 -186 -158 -186q-41 0 -107 30.5t-85 30.5
q-51 0 -51 -55v-8h-107v16q0 184 158 184q41 0 107 -30.5t85 -30.5q51 0 51 57v8h107z" />
    <glyph glyph-name="Odieresis" unicode="&#xd6;" horiz-adv-x="862" 
d="M545 319v807q0 150 -115 150t-115 -150v-807q0 -151 115 -151t115 151zM88 1112q0 169 90 265q93 100 260 100q162 0 252 -106q84 -100 84 -265v-741q0 -180 -81 -283q-89 -113 -263 -113q-342 0 -342 402v741zM475 1530v200h184v-200h-184zM205 1530v200h182v-200h-182z
" />
    <glyph glyph-name="multiply" unicode="&#xd7;" horiz-adv-x="1706" 
d="M403 1188l459 -459l461 459l117 -117l-459 -461l459 -458l-117 -119l-461 461l-459 -461l-116 119l458 458l-458 461z" />
    <glyph glyph-name="Oslash" unicode="&#xd8;" horiz-adv-x="862" 
d="M555 297v582l-238 -652q42 -69 117 -69q121 0 121 139zM307 1171v-602l236 652q-32 67 -113 67q-53 0 -88 -32t-35 -85zM61 -31l66 172q-39 86 -39 230v741q0 169 91 267t259 98q99 0 183 -50l16 48h162l-64 -175q39 -90 39 -194v-741q0 -180 -81 -283
q-89 -113 -263 -113q-110 0 -194 51l-15 -51h-160z" />
    <glyph glyph-name="Ugrave" unicode="&#xd9;" horiz-adv-x="885" 
d="M98 1446h228v-1120q0 -138 118 -138q113 0 113 138v1120h227v-1081q0 -180 -79 -283q-88 -113 -263 -113q-344 0 -344 402v1075zM397 1519l-188 222h251l99 -222h-162z" />
    <glyph glyph-name="Uacute" unicode="&#xda;" horiz-adv-x="885" 
d="M98 1446h228v-1120q0 -138 118 -138q113 0 113 138v1120h227v-1081q0 -180 -79 -283q-88 -113 -263 -113q-344 0 -344 402v1075zM489 1519h-162l97 222h254z" />
    <glyph glyph-name="Ucircumflex" unicode="&#xdb;" horiz-adv-x="885" 
d="M98 1446h228v-1120q0 -138 118 -138q113 0 113 138v1120h227v-1081q0 -180 -79 -283q-88 -113 -263 -113q-344 0 -344 402v1075zM352 1519h-162l154 222h196l154 -222h-162l-90 109z" />
    <glyph glyph-name="Udieresis" unicode="&#xdc;" horiz-adv-x="885" 
d="M98 1446h228v-1120q0 -138 118 -138q113 0 113 138v1120h227v-1081q0 -180 -79 -283q-88 -113 -263 -113q-344 0 -344 402v1075zM485 1530v200h184v-200h-184zM215 1530v200h182v-200h-182z" />
    <glyph glyph-name="Yacute" unicode="&#xdd;" horiz-adv-x="702" 
d="M-25 1446h226l145 -578h14l138 578h227l-260 -846v-600h-223v573zM399 1519h-162l97 222h254z" />
    <glyph glyph-name="Thorn" unicode="&#xde;" horiz-adv-x="834" 
d="M336 506h88q91 0 120 74q17 43 17 155q0 107 -21 149q-31 64 -124 64h-80v-442zM113 0v1446h223v-289h104q195 0 278 -115q70 -98 70 -303q0 -174 -62 -292q-78 -150 -237 -150h-153v-297h-223z" />
    <glyph glyph-name="germandbls" unicode="&#xdf;" horiz-adv-x="823" 
d="M-16 883v184h131q0 17 -2 53v8q0 162 67 238q71 80 230 80q130 0 204 -65q78 -69 78 -197q0 -149 -125 -205q110 -24 151 -97q32 -58 32 -182v-366q0 -348 -240 -348q-74 0 -150 43l1 155q44 -26 71 -26q119 0 119 145v436q0 75 -26 107q-29 37 -101 37h-64v184h60
q37 0 59.5 30t22.5 68q0 109 -96 109q-93 0 -93 -105v-1169h-198v883h-131z" />
    <glyph glyph-name="agrave" unicode="&#xe0;" horiz-adv-x="729" 
d="M452 472h-176l3 -188q2 -125 86 -125q89 0 88 125zM658 765v-479q0 -137 -81 -224q-84 -90 -220 -90t-209.5 81.5t-73.5 273.5q0 340 378 325l1 107q1 149 -86 149q-49 0 -103 -20l-80 156l160 48q314 6 314 -327zM336 1167l-188 222h251l99 -222h-162z" />
    <glyph glyph-name="aacute" unicode="&#xe1;" horiz-adv-x="729" 
d="M452 472h-176l3 -188q2 -125 86 -125q89 0 88 125zM658 765v-479q0 -137 -81 -224q-84 -90 -220 -90t-209.5 81.5t-73.5 273.5q0 340 378 325l1 107q1 149 -86 149q-49 0 -103 -20l-80 156l160 48q314 6 314 -327zM428 1167h-162l97 222h254z" />
    <glyph glyph-name="acircumflex" unicode="&#xe2;" horiz-adv-x="729" 
d="M452 472h-176l3 -188q2 -125 86 -125q89 0 88 125zM658 765v-479q0 -137 -81 -224q-84 -90 -220 -90t-209.5 81.5t-73.5 273.5q0 340 378 325l1 107q1 149 -86 149q-49 0 -103 -20l-80 156l160 48q314 6 314 -327zM291 1167h-162l154 222h196l154 -222h-162l-90 109z" />
    <glyph glyph-name="atilde" unicode="&#xe3;" horiz-adv-x="729" 
d="M452 472h-176l3 -188q2 -125 86 -125q89 0 88 125zM658 765v-479q0 -137 -81 -224q-84 -90 -220 -90t-209.5 81.5t-73.5 273.5q0 340 378 325l1 107q1 149 -86 149q-49 0 -103 -20l-80 156l160 48q314 6 314 -327zM635 1380v-16q0 -186 -158 -186q-41 0 -107 30.5
t-85 30.5q-51 0 -51 -55v-8h-107v16q0 184 158 184q41 0 107 -30.5t85 -30.5q51 0 51 57v8h107z" />
    <glyph glyph-name="adieresis" unicode="&#xe4;" horiz-adv-x="729" 
d="M452 472h-176l3 -188q2 -125 86 -125q89 0 88 125zM658 765v-479q0 -137 -81 -224q-84 -90 -220 -90t-209.5 81.5t-73.5 273.5q0 340 378 325l1 107q1 149 -86 149q-49 0 -103 -20l-80 156l160 48q314 6 314 -327zM424 1178v200h184v-200h-184zM154 1178v200h182v-200
h-182z" />
    <glyph glyph-name="aring" unicode="&#xe5;" horiz-adv-x="729" 
d="M319 1317q0 -28 20 -47t48 -19q68 0 68 66q0 67 -68 67t-68 -67zM209 1319q0 74 52 126t126 52t126 -52t52 -126q0 -75 -51.5 -126.5t-126.5 -51.5t-126.5 51.5t-51.5 126.5zM453 392h-174v-108q0 -125 86 -125q88 0 88 125v108zM658 765v-479q0 -137 -81 -224
q-84 -90 -220 -90t-209.5 81.5t-73.5 273.5q0 340 378 325l1 107q1 149 -86 149q-49 0 -103 -20l-80 156l160 48q314 6 314 -327z" />
    <glyph glyph-name="ae" unicode="&#xe6;" horiz-adv-x="1096" 
d="M429 392h-176v-108q0 -125 88 -125t88 125v108zM632 800v-277q95 64 133 110q55 68 55 159q0 106 -59 106q-81 0 -129 -98zM517 34q-83 -62 -182 -62q-141 0 -215 88q-70 83 -70 226v272h379v201q0 149 -88 149q-61 0 -78 -47q-10 -26 -10 -102v-74h-203v80
q0 330 287 330q163 0 262 -162q131 147 252 147q174 0 174 -235q0 -170 -121 -292q-80 -81 -272 -183v-115q0 -96 69 -96q94 0 94 147h201v-4q0 -142 -78 -234q-83 -96 -223 -96q-99 0 -178 62z" />
    <glyph glyph-name="ccedilla" unicode="&#xe7;" horiz-adv-x="729" 
d="M76 301v471q0 142 78 230q81 92 221 92q139 0 214 -89q70 -83 70 -225v-84h-204v86q0 125 -86 125q-88 0 -88 -125v-475q0 -149 86 -149q60 0 78 48q10 26 10 101v82h204v-88q0 -330 -297 -330q-140 0 -216 97q-70 89 -70 233zM152 -240q70 -16 131 -16q82 0 82 51
q0 60 -111 60h-10l62 145h69l-35 -78h17q201 0 201 -127q0 -131 -240 -131q-82 0 -166 19v77z" />
    <glyph glyph-name="egrave" unicode="&#xe8;" horiz-adv-x="729" 
d="M250 596h176l-3 188q-2 125 -86 125q-89 0 -88 -125zM44 303v479q0 137 82.5 225.5t218.5 88.5t209.5 -81.5t73.5 -273.5q0 -340 -378 -325l-1 -107q-1 -149 86 -149q49 0 103 20l80 -156l-160 -48q-314 -6 -314 327zM332 1167l-188 222h251l99 -222h-162z" />
    <glyph glyph-name="eacute" unicode="&#xe9;" horiz-adv-x="729" 
d="M250 596h176l-3 188q-2 125 -86 125q-89 0 -88 -125zM44 303v479q0 137 82.5 225.5t218.5 88.5t209.5 -81.5t73.5 -273.5q0 -340 -378 -325l-1 -107q-1 -149 86 -149q49 0 103 20l80 -156l-160 -48q-314 -6 -314 327zM424 1167h-162l97 222h254z" />
    <glyph glyph-name="ecircumflex" unicode="&#xea;" horiz-adv-x="729" 
d="M250 596h176l-3 188q-2 125 -86 125q-89 0 -88 -125zM44 303v479q0 137 82.5 225.5t218.5 88.5t209.5 -81.5t73.5 -273.5q0 -340 -378 -325l-1 -107q-1 -149 86 -149q49 0 103 20l80 -156l-160 -48q-314 -6 -314 327zM287 1167h-162l154 222h196l154 -222h-162l-90 109z
" />
    <glyph glyph-name="edieresis" unicode="&#xeb;" horiz-adv-x="729" 
d="M250 596h176l-3 188q-2 125 -86 125q-89 0 -88 -125zM44 303v479q0 137 82.5 225.5t218.5 88.5t209.5 -81.5t73.5 -273.5q0 -340 -378 -325l-1 -107q-1 -149 86 -149q49 0 103 20l80 -156l-160 -48q-314 -6 -314 327zM420 1178v200h184v-200h-184zM150 1178v200h182v-200
h-182z" />
    <glyph glyph-name="igrave" unicode="&#xec;" horiz-adv-x="393" 
d="M96 0v1067h201v-1067h-201zM152 1167l-188 222h251l99 -222h-162z" />
    <glyph glyph-name="iacute" unicode="&#xed;" horiz-adv-x="393" 
d="M96 0v1067h201v-1067h-201zM244 1167h-162l97 222h254z" />
    <glyph glyph-name="icircumflex" unicode="&#xee;" horiz-adv-x="393" 
d="M96 0v1067h201v-1067h-201zM107 1167h-162l154 222h196l154 -222h-162l-90 109z" />
    <glyph glyph-name="idieresis" unicode="&#xef;" horiz-adv-x="393" 
d="M96 0v1067h201v-1067h-201zM240 1178v200h184v-200h-184zM-30 1178v200h182v-200h-182z" />
    <glyph glyph-name="eth" unicode="&#xf0;" horiz-adv-x="727" 
d="M76 774q0 129 84 203q80 70 211 70q6 0 35 -3q-35 79 -99 148l-164 -129l-53 78l154 121q-65 69 -109 112l92 101q64 -50 135 -121l152 121l57 -76l-143 -113q223 -250 223 -563v-457q0 -137 -76.5 -215t-212.5 -78q-133 0 -210 83q-76 80 -76 214v504zM281 250
q0 -92 81 -92q87 0 87 92v553q0 78 -87 78q-81 0 -81 -78v-553z" />
    <glyph glyph-name="ntilde" unicode="&#xf1;" horiz-adv-x="756" 
d="M96 0v1067h201v-117q113 131 227 131q140 0 140 -188v-893h-199v805q0 84 -53 84q-51 0 -115 -80v-809h-201zM645 1380v-16q0 -186 -158 -186q-41 0 -107 30.5t-85 30.5q-51 0 -51 -55v-8h-107v16q0 184 158 184q41 0 107 -30.5t85 -30.5q51 0 51 57v8h107z" />
    <glyph glyph-name="ograve" unicode="&#xf2;" horiz-adv-x="727" 
d="M281 250q0 -92 81 -92q87 0 87 92v581q0 78 -87 78q-81 0 -81 -78v-581zM76 823q0 129 84 202q80 69 211 69q123 0 201.5 -77t78.5 -200v-551q0 -137 -76.5 -215t-212.5 -78q-133 0 -210 83q-76 80 -76 214v553zM320 1167l-188 222h251l99 -222h-162z" />
    <glyph glyph-name="oacute" unicode="&#xf3;" horiz-adv-x="727" 
d="M281 250q0 -92 81 -92q87 0 87 92v581q0 78 -87 78q-81 0 -81 -78v-581zM76 823q0 129 84 202q80 69 211 69q123 0 201.5 -77t78.5 -200v-551q0 -137 -76.5 -215t-212.5 -78q-133 0 -210 83q-76 80 -76 214v553zM412 1167h-162l97 222h254z" />
    <glyph glyph-name="ocircumflex" unicode="&#xf4;" horiz-adv-x="727" 
d="M281 250q0 -92 81 -92q87 0 87 92v581q0 78 -87 78q-81 0 -81 -78v-581zM76 823q0 129 84 202q80 69 211 69q123 0 201.5 -77t78.5 -200v-551q0 -137 -76.5 -215t-212.5 -78q-133 0 -210 83q-76 80 -76 214v553zM275 1167h-162l154 222h196l154 -222h-162l-90 109z" />
    <glyph glyph-name="otilde" unicode="&#xf5;" horiz-adv-x="727" 
d="M281 250q0 -92 81 -92q87 0 87 92v581q0 78 -87 78q-81 0 -81 -78v-581zM76 823q0 129 84 202q80 69 211 69q123 0 201.5 -77t78.5 -200v-551q0 -137 -76.5 -215t-212.5 -78q-133 0 -210 83q-76 80 -76 214v553zM619 1380v-16q0 -186 -158 -186q-41 0 -107 30.5t-85 30.5
q-51 0 -51 -55v-8h-107v16q0 184 158 184q41 0 107 -30.5t85 -30.5q51 0 51 57v8h107z" />
    <glyph glyph-name="odieresis" unicode="&#xf6;" horiz-adv-x="727" 
d="M281 250q0 -92 81 -92q87 0 87 92v581q0 78 -87 78q-81 0 -81 -78v-581zM76 823q0 129 84 202q80 69 211 69q123 0 201.5 -77t78.5 -200v-551q0 -137 -76.5 -215t-212.5 -78q-133 0 -210 83q-76 80 -76 214v553zM408 1178v200h184v-200h-184zM138 1178v200h182v-200h-182
z" />
    <glyph glyph-name="divide" unicode="&#xf7;" horiz-adv-x="1706" 
d="M854 367q57 0 97 -40.5t40 -97.5t-40 -96t-97 -39q-58 0 -97.5 38.5t-39.5 96.5q0 57 40 97.5t97 40.5zM254 694h1198v-166h-1198v166zM854 1128q57 0 97 -41t40 -98t-40 -96t-97 -39q-58 0 -97.5 38.5t-39.5 96.5q0 57 40 98t97 41z" />
    <glyph glyph-name="oslash" unicode="&#xf8;" horiz-adv-x="727" 
d="M651 246q0 -128 -81.5 -200.5t-211.5 -72.5q-83 0 -149 39l-27 -59h-139l68 158q-35 47 -35 139v573q0 129 84 202q80 69 211 69q85 0 147 -37l19 39h139l-60 -140q35 -47 35 -139v-571zM453 602l-170 -401q14 -51 82 -51q36 0 62 22t26 57v373zM274 465l172 401
q-15 54 -81 54q-36 0 -63.5 -23t-27.5 -59v-373z" />
    <glyph glyph-name="ugrave" unicode="&#xf9;" horiz-adv-x="756" 
d="M657 1067v-1067h-198v117q-113 -133 -230 -133q-139 0 -139 190v893h199v-819q0 -72 53 -72t117 80v811h198zM334 1167l-188 222h251l99 -222h-162z" />
    <glyph glyph-name="uacute" unicode="&#xfa;" horiz-adv-x="756" 
d="M657 1067v-1067h-198v117q-113 -133 -230 -133q-139 0 -139 190v893h199v-819q0 -72 53 -72t117 80v811h198zM426 1167h-162l97 222h254z" />
    <glyph glyph-name="ucircumflex" unicode="&#xfb;" horiz-adv-x="756" 
d="M657 1067v-1067h-198v117q-113 -133 -230 -133q-139 0 -139 190v893h199v-819q0 -72 53 -72t117 80v811h198zM289 1167h-162l154 222h196l154 -222h-162l-90 109z" />
    <glyph glyph-name="udieresis" unicode="&#xfc;" horiz-adv-x="756" 
d="M657 1067v-1067h-198v117q-113 -133 -230 -133q-139 0 -139 190v893h199v-819q0 -72 53 -72t117 80v811h198zM422 1178v200h184v-200h-184zM152 1178v200h182v-200h-182z" />
    <glyph glyph-name="yacute" unicode="&#xfd;" horiz-adv-x="653" 
d="M16 1067h187l123 -684h8l100 684h199l-225 -1141q-27 -135 -89 -196q-69 -66 -202 -66q-52 0 -80 3v190h37q87 0 123 41q33 38 39 127zM375 1167h-162l97 222h254z" />
    <glyph glyph-name="thorn" unicode="&#xfe;" horiz-adv-x="739" 
d="M297 864v-665q45 -45 82 -45q82 0 82 112v551q0 94 -70 94q-51 0 -94 -47zM96 -336v1782h201v-463q76 98 188 98q181 0 181 -237v-590q0 -268 -193 -268q-94 0 -176 100v-422h-201z" />
    <glyph glyph-name="ydieresis" unicode="&#xff;" horiz-adv-x="653" 
d="M16 1067h187l123 -684h8l100 684h199l-225 -1141q-27 -135 -89 -196q-69 -66 -202 -66q-52 0 -80 3v190h37q87 0 123 41q33 38 39 127zM371 1178v200h184v-200h-184zM101 1178v200h182v-200h-182z" />
    <glyph glyph-name="Cacute" unicode="&#x106;" horiz-adv-x="850" 
d="M88 371v741q0 169 90 265q93 100 260 100q162 0 252 -106q84 -100 84 -265v-139h-229v159q0 150 -115 150t-115 -150v-807q0 -151 115 -151t115 151v197h229v-151q0 -180 -81 -283q-89 -113 -263 -113q-342 0 -342 402zM473 1519h-162l97 222h254z" />
    <glyph glyph-name="cacute" unicode="&#x107;" horiz-adv-x="729" 
d="M76 301v471q0 142 78 230q81 92 221 92q139 0 214 -89q70 -83 70 -225v-84h-204v86q0 125 -86 125q-88 0 -88 -125v-475q0 -149 86 -149q60 0 78 48q10 26 10 101v82h204v-88q0 -330 -297 -330q-140 0 -216 97q-70 89 -70 233zM424 1167h-162l97 222h254z" />
    <glyph glyph-name="Ccaron" unicode="&#x10c;" horiz-adv-x="850" 
d="M88 371v741q0 169 90 265q93 100 260 100q162 0 252 -106q84 -100 84 -265v-139h-229v159q0 150 -115 150t-115 -150v-807q0 -151 115 -151t115 151v197h229v-151q0 -180 -81 -283q-89 -113 -263 -113q-342 0 -342 402zM516 1741h162l-154 -222h-196l-154 222h162
l90 -109z" />
    <glyph glyph-name="ccaron" unicode="&#x10d;" horiz-adv-x="729" 
d="M76 301v471q0 142 78 230q81 92 221 92q139 0 214 -89q70 -83 70 -225v-84h-204v86q0 125 -86 125q-88 0 -88 -125v-475q0 -149 86 -149q60 0 78 48q10 26 10 101v82h204v-88q0 -330 -297 -330q-140 0 -216 97q-70 89 -70 233zM467 1389h162l-154 -222h-196l-154 222h162
l90 -109z" />
    <glyph glyph-name="dcroat" unicode="&#x111;" horiz-adv-x="750" 
d="M444 203v665q-43 45 -84 45q-79 0 -79 -112v-551q0 -94 69 -94q51 0 94 47zM444 84q-76 -98 -190 -98q-178 0 -178 235v592q0 268 192 268q94 0 176 -100v236h-184v94h184v135h199v-135h98v-94h-98v-1217h-199v84z" />
    <glyph glyph-name="Gbreve" unicode="&#x11e;" horiz-adv-x="852" 
d="M88 371v741q0 169 90 265q93 100 260 100q322 0 322 -371v-133h-215v153q0 150 -115 150t-115 -150v-807q0 -151 115 -151t115 151v226h-135v184h350v-729l-150 100q-72 -131 -215 -131q-307 0 -307 402zM342 1741q0 -99 84 -99t84 99h131v-13q0 -213 -215 -213t-215 213
v13h131z" />
    <glyph glyph-name="gbreve" unicode="&#x11f;" horiz-adv-x="707" 
d="M418 553v248q0 108 -88 108q-86 0 -86 -108v-248q0 -109 86 -109q88 0 88 109zM301 -25q-76 -35 -76 -84q0 -42 54 -66q42 -18 90 -18q59 0 107 16q69 24 69 71q0 79 -244 81zM191 313q-130 81 -130 252v213q0 142 64 225q71 91 209 91q133 0 231 -119q36 -66 36 -92
q0 -7 -3 -11q2 -36 2 -71v-238q0 -289 -256 -287q-7 0 -48 4q-3 0 -5 1q-47 -35 -47 -68q0 -46 117 -53q73 -4 112 -10q252 -37 252 -240q0 -252 -385 -252q-334 0 -334 170q0 53 45 98q38 38 133 76q-123 31 -123 123q0 93 130 188zM270 1389q0 -99 84 -99t84 99h131v-13
q0 -213 -215 -213t-215 213v13h131z" />
    <glyph glyph-name="Idotaccent" unicode="&#x130;" horiz-adv-x="451" 
d="M115 0v1446h227v-1446h-227zM129 1526v208h192v-208h-192z" />
    <glyph glyph-name="dotlessi" unicode="&#x131;" horiz-adv-x="393" 
d="M96 0v1067h201v-1067h-201z" />
    <glyph glyph-name="Lslash" unicode="&#x141;" horiz-adv-x="702" 
d="M123 0v584l-113 -80v190l113 80v672h223v-549l172 121v-193l-172 -120v-496h346v-209h-569z" />
    <glyph glyph-name="lslash" unicode="&#x142;" horiz-adv-x="412" 
d="M106 0v616l-96 -67v117l96 67v713h199v-608l98 65v-117l-98 -67v-719h-199z" />
    <glyph glyph-name="OE" unicode="&#x152;" horiz-adv-x="1188" 
d="M584 1446h542v-209h-358v-379h260v-209h-260v-432h358v-217h-542q-87 -31 -154 -31q-342 0 -342 402v741q0 169 90 265q93 100 260 100q67 0 146 -31zM315 305q0 -59 30 -96q32 -41 89 -41q111 0 111 135v858q0 115 -115 115q-50 0 -82.5 -32.5t-32.5 -82.5v-856z" />
    <glyph glyph-name="oe" unicode="&#x153;" horiz-adv-x="1100" 
d="M651 674h176v108q0 127 -88 127t-88 -127v-108zM281 250q0 -92 81 -92q87 0 87 92v581q0 78 -87 78q-81 0 -81 -78v-581zM76 823q0 129 84 202q80 69 211 69q106 0 186 -64q94 64 191 64q138 0 213 -89q69 -84 69 -225v-272h-379v-201q0 -149 88 -149q61 0 78 47
q10 26 10 102v74h203v-80q0 -330 -287 -330q-110 0 -186 64q-78 -64 -195 -64q-133 0 -209.5 82.5t-76.5 216.5v553z" />
    <glyph glyph-name="Scedilla" unicode="&#x15e;" horiz-adv-x="803" 
d="M47 367l213 32q12 -215 148 -215q62 0 99.5 39t37.5 101q0 113 -180 292l-21 21q-138 138 -188 210q-88 128 -88 261q0 150 98.5 256t247.5 106q150 0 240 -106q82 -97 94 -252l-218 -31q-11 181 -122 181q-119 0 -119 -134q0 -126 210 -329l13 -13q129 -125 177 -203
q73 -116 73 -255q0 -155 -96 -258t-250 -103q-174 0 -272 115q-89 106 -97 285zM188 -240q70 -16 131 -16q82 0 82 51q0 60 -111 60h-10l62 145h69l-35 -78h17q201 0 201 -127q0 -131 -240 -131q-82 0 -166 19v77z" />
    <glyph glyph-name="scedilla" unicode="&#x15f;" horiz-adv-x="686" 
d="M29 289l192 43q24 -174 131 -174q92 0 92 94q0 85 -207 240q-186 139 -186 311q0 131 80.5 211t212.5 80q126 0 202 -76q73 -74 82 -201l-188 -45q-22 135 -106 135q-86 0 -86 -94q0 -69 141 -181q29 -23 59 -48q95 -79 136 -139q57 -83 57 -183q0 -133 -81.5 -212
t-215.5 -79q-136 0 -221 93q-76 84 -94 225zM131 -240q70 -16 131 -16q82 0 82 51q0 60 -111 60h-10l62 145h69l-35 -78h17q201 0 201 -127q0 -131 -240 -131q-82 0 -166 19v77z" />
    <glyph glyph-name="Scaron" unicode="&#x160;" horiz-adv-x="803" 
d="M47 367l213 32q12 -215 148 -215q62 0 99.5 39t37.5 101q0 113 -180 292l-21 21q-138 138 -188 210q-88 128 -88 261q0 150 98.5 256t247.5 106q150 0 240 -106q82 -97 94 -252l-218 -31q-11 181 -122 181q-119 0 -119 -134q0 -126 210 -329l13 -13q129 -125 177 -203
q73 -116 73 -255q0 -155 -96 -258t-250 -103q-174 0 -272 115q-89 106 -97 285zM491 1741h162l-154 -222h-196l-154 222h162l90 -109z" />
    <glyph glyph-name="scaron" unicode="&#x161;" horiz-adv-x="686" 
d="M29 289l192 43q24 -174 131 -174q92 0 92 94q0 85 -207 240q-186 139 -186 311q0 131 80.5 211t212.5 80q126 0 202 -76q73 -74 82 -201l-188 -45q-22 135 -106 135q-86 0 -86 -94q0 -69 141 -181q29 -23 59 -48q95 -79 136 -139q57 -83 57 -183q0 -133 -81.5 -212
t-215.5 -79q-136 0 -221 93q-76 84 -94 225zM434 1389h162l-154 -222h-196l-154 222h162l90 -109z" />
    <glyph glyph-name="Ydieresis" unicode="&#x178;" horiz-adv-x="702" 
d="M-25 1446h226l145 -578h14l138 578h227l-260 -846v-600h-223v573zM395 1530v200h184v-200h-184zM125 1530v200h182v-200h-182z" />
    <glyph glyph-name="Zcaron" unicode="&#x17d;" horiz-adv-x="774" 
d="M63 0v223l400 1000h-367v223h609v-209l-404 -1014h404v-223h-642zM477 1741h162l-154 -222h-196l-154 222h162l90 -109z" />
    <glyph glyph-name="zcaron" unicode="&#x17e;" horiz-adv-x="635" 
d="M53 0v178l326 703h-301v186h508v-176l-312 -701h312v-190h-533zM407 1389h162l-154 -222h-196l-154 222h162l90 -109z" />
    <glyph glyph-name="florin" unicode="&#x192;" horiz-adv-x="831" 
d="M0 -147q31 -9 57 -9q88 0 105 103l141 835h-190v166h219l45 260q46 267 246 267q65 0 114 -17v-174q-40 10 -59 10q-89 0 -105 -102l-38 -244h202v-166h-233l-144 -854q-45 -264 -247 -264q-60 0 -113 17v172z" />
    <glyph glyph-name="circumflex" unicode="&#x2c6;" 
d="M422 1167h-162l154 222h196l154 -222h-162l-90 109z" />
    <glyph glyph-name="caron" unicode="&#x2c7;" 
d="M602 1389h162l-154 -222h-196l-154 222h162l90 -109z" />
    <glyph glyph-name="breve" unicode="&#x2d8;" 
d="M428 1389q0 -99 84 -99t84 99h131v-13q0 -213 -215 -213t-215 213v13h131z" />
    <glyph glyph-name="dotaccent" unicode="&#x2d9;" 
d="M416 1174v208h192v-208h-192z" />
    <glyph glyph-name="ring" unicode="&#x2da;" 
d="M334 1346q0 74 52 126t126 52t126 -52t52 -126q0 -75 -51.5 -127t-126.5 -52q-76 0 -127 51.5t-51 127.5zM444 1343q0 -65 68 -65t68 65q0 68 -68 68q-28 0 -48 -20t-20 -48z" />
    <glyph glyph-name="ogonek" unicode="&#x2db;" 
d="M629 0q-68 -102 -68 -174q0 -66 43 -115h-180q-23 48 -23 84q0 99 113 205h115z" />
    <glyph glyph-name="tilde" unicode="&#x2dc;" 
d="M766 1380v-16q0 -186 -158 -186q-41 0 -107 30.5t-85 30.5q-51 0 -51 -55v-8h-107v16q0 184 158 184q41 0 107 -30.5t85 -30.5q51 0 51 57v8h107z" />
    <glyph glyph-name="hungarumlaut" unicode="&#x2dd;" 
d="M408 1167h-105l82 222h207zM668 1167h-117l96 222h209z" />
    <glyph glyph-name="Delta" unicode="&#x394;" horiz-adv-x="1395" 
d="M698 1196l-379 -983h756zM569 1473h256l574 -1473h-1403z" />
    <glyph glyph-name="Delta" unicode="&#x2206;" horiz-adv-x="1395" 
d="M698 1196l-379 -983h756zM569 1473h256l574 -1473h-1403z" />
    <glyph glyph-name="Omega" unicode="&#x3a9;" horiz-adv-x="1569" 
d="M1194 213h305v-213h-602v229q324 190 324 596q0 205 -115 336q-120 137 -322 137q-207 0 -325 -142q-111 -132 -111 -343q0 -395 324 -584v-229h-602v213h305q-279 252 -279 596q0 312 188.5 507t499.5 195q304 0 496.5 -191.5t192.5 -494.5q0 -192 -68 -338
q-65 -140 -211 -274z" />
    <glyph glyph-name="Omega" unicode="&#x2126;" horiz-adv-x="1569" 
d="M1194 213h305v-213h-602v229q324 190 324 596q0 205 -115 336q-120 137 -322 137q-207 0 -325 -142q-111 -132 -111 -343q0 -395 324 -584v-229h-602v213h305q-279 252 -279 596q0 312 188.5 507t499.5 195q304 0 496.5 -191.5t192.5 -494.5q0 -192 -68 -338
q-65 -140 -211 -274z" />
    <glyph glyph-name="pi" unicode="&#x3c0;" horiz-adv-x="1368" 
d="M360 889h-45q-104 0 -123 -131h-174q27 179 93 247q75 76 249 76h953l-39 -192h-193l-84 -437q-2 -11 -8 -41q-22 -111 -22 -147q0 -106 100 -106q32 0 102 10l-34 -168q-58 -16 -136 -16q-266 0 -266 202q0 32 52 344l1 6l70 353h-268l-174 -889h-226z" />
    <glyph glyph-name="endash" unicode="&#x2013;" 
d="M0 467v133h1024v-133h-1024z" />
    <glyph glyph-name="emdash" unicode="&#x2014;" horiz-adv-x="2048" 
d="M0 467v133h2048v-133h-2048z" />
    <glyph glyph-name="quoteleft" unicode="&#x2018;" horiz-adv-x="440" 
d="M328 1190v-227h-213v227l112 256h101l-76 -256h76z" />
    <glyph glyph-name="quoteright" unicode="&#x2019;" horiz-adv-x="440" 
d="M115 1219v227h213v-227l-115 -256h-98l73 256h-73z" />
    <glyph glyph-name="quotesinglbase" unicode="&#x201a;" horiz-adv-x="440" 
d="M115 0v227h213v-227l-115 -256h-98l73 256h-73z" />
    <glyph glyph-name="quotedblleft" unicode="&#x201c;" horiz-adv-x="739" 
d="M627 1190v-227h-215v227l114 256h101l-76 -256h76zM328 1190v-227h-213v227l112 256h101l-76 -256h76z" />
    <glyph glyph-name="quotedblright" unicode="&#x201d;" horiz-adv-x="739" 
d="M115 1219v227h213v-227l-115 -256h-98l73 256h-73zM412 1219v227h215v-227l-115 -256h-100l75 256h-75z" />
    <glyph glyph-name="quotedblbase" unicode="&#x201e;" horiz-adv-x="739" 
d="M412 0v227h215v-227l-115 -256h-100l75 256h-75zM115 0v227h213v-227l-115 -256h-98l73 256h-73z" />
    <glyph glyph-name="dagger" unicode="&#x2020;" horiz-adv-x="788" 
d="M506 1446l-74 -397l316 71v-223l-316 82q25 -180 74 -332q-57 -225 -74 -799l-78 1q-15 529 -73 798q54 170 73 332l-313 -82v223l313 -71l-73 397h225z" />
    <glyph glyph-name="daggerdbl" unicode="&#x2021;" horiz-adv-x="788" 
d="M281 653q52 155 77 326l-317 -82v223l315 -71l-75 397h225l-74 -397l316 71v-223l-318 82q31 -196 76 -326q-45 -128 -76 -327l318 82v-224l-316 72l74 -397h-225l75 397l-315 -72v224l317 -82q-26 178 -77 327z" />
    <glyph glyph-name="bullet" unicode="&#x2022;" horiz-adv-x="1208" 
d="M307 762q0 124 86.5 209.5t210.5 85.5q123 0 209 -86t86 -209t-87 -210t-210 -87q-124 0 -209.5 86.5t-85.5 210.5z" />
    <glyph glyph-name="ellipsis" unicode="&#x2026;" horiz-adv-x="2048" 
d="M236 0v227h213v-227h-213zM918 0v227h213v-227h-213zM1602 0v227h213v-227h-213z" />
    <glyph glyph-name="perthousand" unicode="&#x2030;" horiz-adv-x="1556" 
d="M1391 195v329q0 78 -66 78q-63 0 -63 -76v-331q0 -91 63 -91q66 0 66 91zM1548 231q0 -262 -223 -262q-221 0 -221 267v260q0 111 58.5 176t168.5 65q106 0 164 -71q53 -65 53 -174v-261zM1036 231q0 -262 -221 -262t-221 267v260q0 111 58.5 176t168.5 65q105 0 163 -71
q52 -66 52 -174v-261zM881 195v329q0 78 -66 78q-63 0 -63 -76v-331q0 -91 63 -91q66 0 66 91zM109 0l653 1446h176l-653 -1446h-176zM307 932v332q0 75 -63 75q-66 0 -66 -75v-332q0 -88 66 -88q63 0 63 88zM465 969q0 -262 -221 -262t-221 266v260q0 111 57.5 176.5
t167.5 65.5q106 0 164 -72q53 -66 53 -174v-260z" />
    <glyph glyph-name="guilsinglleft" unicode="&#x2039;" horiz-adv-x="473" 
d="M76 530l147 318h172l-139 -318l139 -315h-172z" />
    <glyph glyph-name="guilsinglright" unicode="&#x203a;" horiz-adv-x="473" 
d="M395 530l-147 -315h-172l139 315l-139 318h172z" />
    <glyph glyph-name="fraction" unicode="&#x2044;" horiz-adv-x="276" 
d="M-276 0l653 1446h176l-653 -1446h-176z" />
    <glyph glyph-name="franc" unicode="&#x20a3;" horiz-adv-x="1223" 
d="M115 0v1446h581v-209h-358v-379h258v-209h-258v-649h-223zM780 0v1067h201v-145q76 157 211 157h20v-223q-28 14 -65 14q-166 0 -166 -172v-698h-201z" />
    <glyph glyph-name="trademark" unicode="&#x2122;" horiz-adv-x="1706" 
d="M809 918h170l141 360l133 -360h170v542h-114v-428l-160 428h-59l-166 -428v428h-115v-542zM225 918h467v94h-168v448h-129v-448h-170v-94z" />
    <glyph glyph-name="partialdiff" unicode="&#x2202;" horiz-adv-x="1075" 
d="M758 639q35 212 35 334q0 229 -121 229q-57 0 -147.5 -58.5t-121.5 -58.5q-36 0 -64 25t-28 61q0 82 104 128q81 36 175 36q204 0 312 -199q87 -160 87 -382q0 -286 -118 -507q-146 -272 -408 -272q-167 0 -271 117q-100 112 -100 281q0 181 103 311q111 141 288 141
q196 0 275 -186zM705 504q0 241 -158 241q-130 0 -196 -181q-48 -131 -48 -288q0 -239 158 -239q129 0 196 180q48 132 48 287z" />
    <glyph glyph-name="product" unicode="&#x220f;" horiz-adv-x="1579" 
d="M154 1473h1267v-1866h-286v1622h-695v-1622h-286v1866z" />
    <glyph glyph-name="summation" unicode="&#x2211;" horiz-adv-x="1421" 
d="M61 1473h1280v-226h-921l647 -684l-661 -729h974v-227h-1347v160l712 786l-684 719v201z" />
    <glyph glyph-name="minus" unicode="&#x2212;" horiz-adv-x="1706" 
d="M254 696h1198v-170h-1198v170z" />
    <glyph glyph-name="radical" unicode="&#x221a;" horiz-adv-x="1323" 
d="M1128 1675h197v-110h-108l-594 -1606h-82l-316 872l-131 -49l-28 95l305 108l247 -688z" />
    <glyph glyph-name="infinity" unicode="&#x221e;" horiz-adv-x="1706" 
d="M928 559q91 -164 256 -164q97 0 159 61t62 158q0 91 -53 155q-57 67 -146 67q-145 0 -278 -277zM780 662q-94 165 -256 165q-98 0 -159.5 -61.5t-61.5 -159.5q0 -90 53 -153q56 -66 144 -66q150 0 280 275zM862 471q-137 -260 -321 -260q-150 0 -244 128q-84 115 -84 271
q0 159 71 270q83 130 234 130q174 0 326 -260q134 262 334 262q143 0 235 -133q82 -118 82 -267q0 -159 -71 -270q-83 -129 -234 -129q-107 0 -196 83q-59 55 -132 175z" />
    <glyph glyph-name="integral" unicode="&#x222b;" horiz-adv-x="1120" 
d="M324 -258q106 0 122 692l3 123q10 406 58 601q98 394 367 394q77 0 134 -39q65 -44 65 -118q0 -129 -129 -129q-93 0 -115 88q-4 15 -6 45q-3 41 -26 41q-101 1 -119 -615l-8 -249q-8 -232 -19 -340q-21 -209 -71 -332q-110 -275 -334 -275q-79 0 -134 38q-63 43 -63 118
q0 131 135 131q82 0 108 -75l8 -58q6 -41 24 -41z" />
    <glyph glyph-name="approxequal" unicode="&#x2248;" horiz-adv-x="1706" 
d="M1530 592v-186q-205 -140 -389 -140q-91 0 -284 66.5t-294 66.5q-160 0 -385 -157v184q217 145 387 145q107 0 303.5 -67.5t282.5 -67.5q157 0 379 156zM1530 979v-184q-206 -142 -389 -142q-89 0 -283 67.5t-295 67.5q-156 0 -385 -157v184q218 146 387 146
q106 0 298.5 -68t279.5 -68q173 0 387 154z" />
    <glyph glyph-name="approxequal" unicode="&#x22f2;" horiz-adv-x="1706" 
d="M1530 592v-186q-205 -140 -389 -140q-91 0 -284 66.5t-294 66.5q-160 0 -385 -157v184q217 145 387 145q107 0 303.5 -67.5t282.5 -67.5q157 0 379 156zM1530 979v-184q-206 -142 -389 -142q-89 0 -283 67.5t-295 67.5q-156 0 -385 -157v184q218 146 387 146
q106 0 298.5 -68t279.5 -68q173 0 387 154z" />
    <glyph glyph-name="notequal" unicode="&#x2260;" horiz-adv-x="1706" 
d="M1204 1212l123 -100l-170 -215h295v-162h-403l-197 -250h600v-161h-707l-249 -314l-123 99l170 215h-289v161h393l199 250h-592v162h700z" />
    <glyph glyph-name="lessequal" unicode="&#x2264;" horiz-adv-x="1706" 
d="M260 178h1186v-166h-1186v166zM1446 1223v-176l-889 -287l889 -287v-176l-1186 389v145z" />
    <glyph glyph-name="greaterequal" unicode="&#x2265;" horiz-adv-x="1706" 
d="M260 178h1188v-166h-1188v166zM260 1223l1186 -392v-145l-1186 -389v176l891 287l-891 287v176z" />
    <glyph glyph-name="lozenge" unicode="&#x25ca;" horiz-adv-x="1012" 
d="M506 1409l-385 -817l385 -825l385 825zM506 1653l500 -1061l-500 -1069l-500 1069z" />
    <glyph glyph-name="apple" unicode="&#xf000;" horiz-adv-x="1618" 
d="M836 1216q-2 12 -2 37q0 132 101 237q96 99 230 124q2 -20 2 -62q0 -117 -94 -226q-97 -112 -213 -112h-8q-3 0 -8 1t-8 1zM1505 403q-90 -196 -152 -279q-118 -159 -257 -159q-46 0 -130 33t-124 33q-44 0 -130 -33t-128 -33q-129 0 -258 176q-213 291 -213 596
q0 211 117 348q124 146 331 146q57 0 149.5 -34t129.5 -34q32 0 124.5 35t149.5 35q216 0 359 -164q-201 -128 -201 -328q0 -233 233 -338z" />
    <glyph glyph-name="fi" unicode="&#xf001;" horiz-adv-x="842" 
d="M539 1247v199h198v-199h-198zM539 0v1067h198v-1067h-198zM123 0v901h-113v166h113v125q0 254 231 254q59 0 115 -16v-174l-53 10q-94 0 -94 -90v-109h127v-166h-127v-901h-199z" />
    <glyph glyph-name="fl" unicode="&#xf002;" horiz-adv-x="842" 
d="M539 0v1446h198v-1446h-198zM123 0v901h-113v166h113v125q0 254 231 254q59 0 115 -16v-174l-53 10q-94 0 -94 -90v-109h127v-166h-127v-901h-199z" />
    <glyph glyph-name="periodcentered" horiz-adv-x="440" 
d="M92 741q0 53 37 91t90 38t91 -38t38 -91q0 -54 -37.5 -91.5t-91.5 -37.5q-52 0 -89.5 38.5t-37.5 90.5z" />
    <glyph glyph-name="glyph256" horiz-adv-x="416" 
 />
    <glyph glyph-name="glyph257" horiz-adv-x="416" 
 />
    </font>
</defs>
</svg>
